<svg xmlns="http://www.w3.org/2000/svg" viewBox="0 0 210.93 225.13"><defs><style>.cls-1{fill:#aaafb9;}</style></defs><title>ang1</title><g id="Capa_2" data-name="Capa 2"><g id="Capa_5" data-name="Capa 5"><path class="cls-1" d="M105.46,12.1l93.1,33.2-14.2,123.1-78.9,43.7-78.9-43.7L12.36,45.3l93.1-33.2m0-12.1-3.83,1.37L8.53,34.57,0,37.61l1,9,14.2,123.1.67,5.83L21,178.38l78.9,43.7,5.52,3.06,5.52-3.06,78.9-43.7,5.13-2.84.67-5.83,14.2-123.1,1-9-8.53-3-93.1-33.2L105.46,0Z"/><path class="cls-1" d="M47.36,164.7h21.7l11.7-29.2h49.4l11.7,29.2h21.7L105.46,34.2Zm58.1-47.2h-17l17-40.9,17,40.9Z"/></g></g></svg>